<svg width="30" height="30" viewBox="0 0 30 30" fill="none" xmlns="http://www.w3.org/2000/svg">
<g filter="url(#filter0_d_2917_13088)">
<path d="M5.33008 18.0007C5.33008 16.763 5.82174 15.576 6.69691 14.7008C7.57208 13.8256 8.75907 13.334 9.99675 13.334H19.3301C20.5678 13.334 21.7547 13.8256 22.6299 14.7008C23.5051 15.576 23.9967 16.763 23.9967 18.0007C23.9967 18.6195 23.7509 19.213 23.3133 19.6506C22.8757 20.0882 22.2823 20.334 21.6634 20.334H7.66341C7.04457 20.334 6.45108 20.0882 6.0135 19.6506C5.57591 19.213 5.33008 18.6195 5.33008 18.0007Z" stroke="#A3A3A3" stroke-width="2.4" stroke-linejoin="round"/>
<path d="M14.6631 8.66699C16.5961 8.66699 18.1631 7.09999 18.1631 5.16699C18.1631 3.234 16.5961 1.66699 14.6631 1.66699C12.7301 1.66699 11.1631 3.234 11.1631 5.16699C11.1631 7.09999 12.7301 8.66699 14.6631 8.66699Z" stroke="#A3A3A3" stroke-width="2.4"/>
</g>
<defs>
<filter id="filter0_d_2917_13088" x="0.129883" y="0.466797" width="29.0664" height="29.0674" filterUnits="userSpaceOnUse" color-interpolation-filters="sRGB">
<feFlood flood-opacity="0" result="BackgroundImageFix"/>
<feColorMatrix in="SourceAlpha" type="matrix" values="0 0 0 0 0 0 0 0 0 0 0 0 0 0 0 0 0 0 127 0" result="hardAlpha"/>
<feOffset dy="4"/>
<feGaussianBlur stdDeviation="2"/>
<feComposite in2="hardAlpha" operator="out"/>
<feColorMatrix type="matrix" values="0 0 0 0 0 0 0 0 0 0 0 0 0 0 0 0 0 0 0.25 0"/>
<feBlend mode="normal" in2="BackgroundImageFix" result="effect1_dropShadow_2917_13088"/>
<feBlend mode="normal" in="SourceGraphic" in2="effect1_dropShadow_2917_13088" result="shape"/>
</filter>
</defs>
</svg>
