<svg width="286" height="286" viewBox="0 0 286 286" fill="none" xmlns="http://www.w3.org/2000/svg">
<path fill-rule="evenodd" clip-rule="evenodd" d="M282 0H250V4H282V36H286V4V0H282Z" fill="url(#paint0_linear_3942_1082)"/>
<path fill-rule="evenodd" clip-rule="evenodd" d="M282 286H250V282H282V250H286V282V286H282Z" fill="url(#paint1_linear_3942_1082)"/>
<path fill-rule="evenodd" clip-rule="evenodd" d="M-1.39876e-06 4L0 36L4 36L4 4L36 4L36 -1.57361e-06L4 -1.74846e-07L-1.57361e-06 0L-1.39876e-06 4Z" fill="url(#paint2_linear_3942_1082)"/>
<path fill-rule="evenodd" clip-rule="evenodd" d="M-1.39876e-06 282L0 250L4 250L4 282L36 282L36 286L4 286L-1.57361e-06 286L-1.39876e-06 282Z" fill="url(#paint3_linear_3942_1082)"/>
<path fill-rule="evenodd" clip-rule="evenodd" d="M144 142V131H142V142H131V144H142V155H144V144H155V142H144Z" fill="url(#paint4_linear_3942_1082)"/>
<defs>
<linearGradient id="paint0_linear_3942_1082" x1="250" y1="0" x2="287.024" y2="1.08583" gradientUnits="userSpaceOnUse">
<stop stop-color="#5262F5"/>
<stop offset="1" stop-color="#7B3FEF"/>
</linearGradient>
<linearGradient id="paint1_linear_3942_1082" x1="250" y1="286" x2="287.024" y2="284.914" gradientUnits="userSpaceOnUse">
<stop stop-color="#5262F5"/>
<stop offset="1" stop-color="#7B3FEF"/>
</linearGradient>
<linearGradient id="paint2_linear_3942_1082" x1="0" y1="36" x2="1.08583" y2="-1.02396" gradientUnits="userSpaceOnUse">
<stop stop-color="#5262F5"/>
<stop offset="1" stop-color="#7B3FEF"/>
</linearGradient>
<linearGradient id="paint3_linear_3942_1082" x1="0" y1="250" x2="1.08583" y2="287.024" gradientUnits="userSpaceOnUse">
<stop stop-color="#5262F5"/>
<stop offset="1" stop-color="#7B3FEF"/>
</linearGradient>
<linearGradient id="paint4_linear_3942_1082" x1="131" y1="131" x2="155.683" y2="131.724" gradientUnits="userSpaceOnUse">
<stop stop-color="#5262F5"/>
<stop offset="1" stop-color="#7B3FEF"/>
</linearGradient>
</defs>
</svg>
