<svg width="44" height="10" viewBox="0 0 44 10" fill="none" xmlns="http://www.w3.org/2000/svg">
<g clip-path="url(#clip0_3608_685)">
<path d="M36.0676 1.0625H33.4707V9.09598H36.0676V1.0625Z" fill="#E4E4E4"/>
<path d="M43.7151 3.43262H41.1182V6.98842H43.7151V3.43262Z" fill="#E4E4E4"/>
<path d="M33.4707 1.06209V3.43262L41.1171 3.43262V1.06209L33.4707 1.06209Z" fill="#E4E4E4"/>
<path d="M33.4707 6.98885V9.35938H41.1171V6.98885H33.4707Z" fill="#E4E4E4"/>
<path fill-rule="evenodd" clip-rule="evenodd" d="M9.26123 2.16477C12.1554 4.98575 9.76769 8.72354 7.30769 7.87724C4.84767 7.03095 3.97943 4.20997 5.06473 1.60057C4.14826 2.51739 3.14013 5.36658 6.43945 9.42879H0.217059C0.265295 7.28954 1.17212 2.67254 4.41356 1.31847C3.32826 1.60057 0.926123 2.94053 0 6.04361V0.947893C2.18179 0.414045 6.97158 -0.0670058 9.26123 2.16477ZM5.64331 1.31847C6.1739 1.45952 7.40874 1.9814 8.10333 2.94053C8.97157 4.13945 8.53744 4.77417 8.32039 4.91522C8.10333 5.05626 7.16274 5.12679 6.36685 3.7163C5.73014 2.58792 5.6192 1.64758 5.64331 1.31847Z" fill="#E4E4E4"/>
<path d="M27.2676 0.923023C25.4786 1.71052 23.7329 1.25115 23.0837 0.923023V4.36833C23.8339 4.48083 25.897 2.68083 26.8348 1.76676C25.0458 4.18551 23.4924 7.83707 22.9395 9.36051H27.2676V6.75895C28.4218 3.49645 31.1149 4.27457 32.3171 5.07145V0.923023C29.6048 -0.876978 27.8206 3.50115 27.2676 5.91522V0.923023Z" fill="#E4E4E4"/>
<path d="M15.336 9.35938C14.6858 9.35938 14.0828 9.21723 13.527 8.93293C12.9712 8.63847 12.5255 8.21712 12.1899 7.66882C11.8543 7.12054 11.6865 6.46057 11.6865 5.68891C11.6865 4.99848 11.8019 4.36388 12.0326 3.78514C12.2738 3.2064 12.6094 2.7038 13.0393 2.27736C13.4693 1.85091 13.9675 1.52093 14.5337 1.2874C15.1 1.04372 15.7082 0.921875 16.3585 0.921875C17.0611 0.921875 17.6641 1.04879 18.1675 1.30263C18.6709 1.55646 19.0432 1.95245 19.2844 2.49058C19.5361 3.01855 19.6252 3.70392 19.5518 4.54665C19.4994 5.51123 19.2948 6.35904 18.9383 7.09008C18.5817 7.81098 18.0994 8.36942 17.4911 8.7654C16.8933 9.16139 16.175 9.35938 15.336 9.35938ZM16.0911 7.39469C16.5734 7.39469 16.9982 7.283 17.3652 7.05962C17.7428 6.8261 18.0363 6.51134 18.2461 6.11535C18.4664 5.70921 18.5765 5.23708 18.5765 4.69895C18.5765 4.14051 18.4035 3.69884 18.0574 3.37393C17.7218 3.04902 17.2499 2.88656 16.6417 2.88656C16.1698 2.88656 15.745 3.00332 15.3675 3.23686C14.9899 3.46023 14.6911 3.77499 14.4708 4.18113C14.2611 4.57711 14.1562 5.04417 14.1562 5.5823C14.1562 6.14074 14.324 6.58241 14.6595 6.90733C15.0056 7.23223 15.4829 7.39469 16.0911 7.39469ZM17.7742 9.23754L18.1046 7.6079L18.6551 5.17108L18.9855 2.73426L19.3316 1.04372H21.7855L20.1023 9.23754H17.7742Z" fill="#E4E4E4"/>
<path d="M36.0676 1.0625H33.4707V9.09598H36.0676V1.0625Z" fill="#E4E4E4"/>
<path d="M43.7141 3.43262H41.1172V6.98842H43.7141V3.43262Z" fill="#E4E4E4"/>
<path d="M33.4707 1.06209V3.43262L41.1171 3.43262V1.06209L33.4707 1.06209Z" fill="#E4E4E4"/>
<path d="M33.4707 6.98885V9.35938H41.1171V6.98885H33.4707Z" fill="#E4E4E4"/>
<path fill-rule="evenodd" clip-rule="evenodd" d="M9.26123 2.16477C12.1554 4.98575 9.76769 8.72354 7.30769 7.87724C4.84767 7.03095 3.97943 4.20997 5.06473 1.60057C4.14825 2.51739 3.14013 5.36658 6.43945 9.42879H0.217059C0.265295 7.28954 1.17212 2.67254 4.41356 1.31847C3.32826 1.60057 0.926123 2.94053 0 6.04361V0.947893C2.18179 0.414045 6.97158 -0.0670059 9.26123 2.16477ZM5.64331 1.31847C6.1739 1.45952 7.40873 1.9814 8.10333 2.94053C8.97157 4.13945 8.53744 4.77417 8.32039 4.91522C8.10333 5.05626 7.16274 5.12679 6.36685 3.7163C5.73014 2.58792 5.6192 1.64758 5.64331 1.31847Z" fill="#E4E4E4"/>
<path d="M27.2676 0.923023C25.4786 1.71052 23.7329 1.25115 23.0837 0.923023V4.36833C23.8339 4.48083 25.897 2.68083 26.8348 1.76676C25.0458 4.18551 23.4924 7.83707 22.9395 9.36051H27.2676V6.75895C28.4218 3.49645 31.1149 4.27457 32.3171 5.07145V0.923023C29.6048 -0.876977 27.8206 3.50115 27.2676 5.91522V0.923023Z" fill="#E4E4E4"/>
<path d="M15.336 9.35938C14.6858 9.35938 14.0828 9.21723 13.527 8.93293C12.9712 8.63847 12.5255 8.21712 12.1899 7.66882C11.8543 7.12054 11.6865 6.46057 11.6865 5.68891C11.6865 4.99848 11.8019 4.36388 12.0326 3.78514C12.2738 3.2064 12.6094 2.7038 13.0393 2.27736C13.4693 1.85091 13.9675 1.52093 14.5337 1.2874C15.1 1.04372 15.7082 0.921875 16.3585 0.921875C17.0611 0.921875 17.6641 1.04879 18.1675 1.30263C18.6709 1.55646 19.0432 1.95245 19.2844 2.49058C19.5361 3.01855 19.6252 3.70392 19.5518 4.54665C19.4994 5.51123 19.2948 6.35904 18.9383 7.09008C18.5817 7.81098 18.0994 8.36942 17.4911 8.7654C16.8933 9.16139 16.175 9.35938 15.336 9.35938ZM16.0911 7.39469C16.5734 7.39469 16.9982 7.283 17.3652 7.05962C17.7428 6.8261 18.0363 6.51134 18.2461 6.11535C18.4664 5.70921 18.5765 5.23708 18.5765 4.69895C18.5765 4.14051 18.4035 3.69884 18.0574 3.37393C17.7218 3.04902 17.2499 2.88656 16.6417 2.88656C16.1698 2.88656 15.745 3.00332 15.3675 3.23686C14.9899 3.46023 14.6911 3.77499 14.4708 4.18113C14.2611 4.57711 14.1562 5.04417 14.1562 5.5823C14.1562 6.14074 14.324 6.58241 14.6595 6.90733C15.0056 7.23223 15.4829 7.39469 16.0911 7.39469ZM17.7742 9.23754L18.1046 7.6079L18.6551 5.17108L18.9855 2.73426L19.3316 1.04372H21.7855L20.1023 9.23754H17.7742Z" fill="#E4E4E4"/>
</g>
<defs>
<clipPath id="clip0_3608_685">
<rect width="43.7143" height="9" fill="white" transform="translate(0 0.5)"/>
</clipPath>
</defs>
</svg>
