<svg width="240" height="50" viewBox="0 0 240 50" fill="none" xmlns="http://www.w3.org/2000/svg">
<g clip-path="url(#clip0_2917_11408)">
<path d="M198.02 3.125H183.763V47.7555H198.02V3.125Z" fill="#5262F5"/>
<path d="M240 16.2949H225.742V36.0494H240V16.2949Z" fill="#5262F5"/>
<path d="M183.763 3.12531V16.2949L225.743 16.2949V3.12531L183.763 3.12531Z" fill="#5262F5"/>
<path d="M183.763 36.0491V49.2188H225.743V36.0491H183.763Z" fill="#5262F5"/>
<path fill-rule="evenodd" clip-rule="evenodd" d="M50.8459 9.24875C66.7353 24.9209 53.6265 45.6863 40.1206 40.9847C26.6147 36.283 21.8478 20.6109 27.8063 6.11426C22.7747 11.2077 17.2399 27.0366 35.3538 49.6044H1.1917C1.45652 37.7197 6.43519 12.0697 24.2313 4.54705C18.2728 6.11426 5.08459 13.5585 0 30.7978V2.4883C11.9785 -0.477525 38.2753 -3.15003 50.8459 9.24875ZM30.9829 4.54705C33.8959 5.33066 40.6754 8.23 44.4889 13.5585C49.2557 20.2191 46.8722 23.7454 45.6806 24.529C44.4889 25.3126 39.3248 25.7044 34.9552 17.8684C31.4596 11.5995 30.8505 6.37547 30.9829 4.54705Z" fill="#5262F5"/>
<path d="M149.703 2.35013C139.881 6.72513 130.297 4.17304 126.733 2.35013V21.4907C130.851 22.1157 142.178 12.1157 147.327 7.03755C137.505 20.4751 128.976 40.7615 125.94 49.2251H149.703V34.772C156.039 16.647 170.825 20.9698 177.426 25.397V2.35013C162.534 -7.64987 152.739 16.673 149.703 30.0845V2.35013Z" fill="#5262F5"/>
<path d="M84.1946 49.2188C80.6247 49.2188 77.3143 48.4291 74.2628 46.8496C71.2113 45.2137 68.7643 42.8729 66.9218 39.8268C65.0794 36.7808 64.1582 33.1143 64.1582 28.8273C64.1582 24.9916 64.7916 21.466 66.0582 18.2508C67.3824 15.0355 69.2249 12.2434 71.5854 9.87422C73.9461 7.50508 76.681 5.67182 79.7899 4.37444C82.8988 3.02065 86.2382 2.34375 89.8081 2.34375C93.6655 2.34375 96.9764 3.04885 99.74 4.45905C102.504 5.86924 104.548 8.06914 105.872 11.0588C107.254 13.992 107.743 17.7995 107.34 22.4814C107.052 27.8402 105.929 32.5502 103.972 36.6116C102.014 40.6166 99.3661 43.719 96.0267 45.9189C92.7443 48.1188 88.8006 49.2188 84.1946 49.2188ZM88.3404 38.3038C90.9883 38.3038 93.3202 37.6834 95.3352 36.4423C97.4081 35.145 99.02 33.3963 100.172 31.1964C101.381 28.9401 101.986 26.3171 101.986 23.3275C101.986 20.2251 101.036 17.7713 99.1356 15.9663C97.2932 14.1613 94.7024 13.2587 91.363 13.2587C88.7721 13.2587 86.4402 13.9073 84.3673 15.2048C82.2944 16.4457 80.654 18.1944 79.4445 20.4507C78.2931 22.6506 77.7173 25.2454 77.7173 28.235C77.7173 31.3374 78.6385 33.7912 80.4806 35.5963C82.3808 37.4013 85.001 38.3038 88.3404 38.3038ZM97.5808 48.5419L99.3946 39.4884L102.417 25.9505L104.231 12.4126L106.131 3.02064H119.604L110.363 48.5419H97.5808Z" fill="#5262F5"/>
<path d="M198.02 3.125H183.763V47.7555H198.02V3.125Z" fill="#5262F5"/>
<path d="M240.001 16.2949H225.743V36.0494H240.001V16.2949Z" fill="#5262F5"/>
<path d="M183.763 3.12531V16.2949L225.743 16.2949V3.12531L183.763 3.12531Z" fill="#5262F5"/>
<path d="M183.763 36.0491V49.2188H225.743V36.0491H183.763Z" fill="#5262F5"/>
<path fill-rule="evenodd" clip-rule="evenodd" d="M50.8459 9.24875C66.7353 24.9209 53.6265 45.6863 40.1206 40.9847C26.6147 36.2831 21.8478 20.6109 27.8063 6.11426C22.7747 11.2077 17.2399 27.0366 35.3538 49.6044H1.1917C1.45652 37.7197 6.43519 12.0697 24.2313 4.54705C18.2728 6.11426 5.08459 13.5585 0 30.7978V2.4883C11.9785 -0.477525 38.2753 -3.15003 50.8459 9.24875ZM30.9829 4.54705C33.8959 5.33066 40.6754 8.23 44.4889 13.5585C49.2557 20.2191 46.8722 23.7454 45.6806 24.529C44.4889 25.3126 39.3248 25.7044 34.9552 17.8684C31.4596 11.5995 30.8505 6.37547 30.9829 4.54705Z" fill="#FF5C00"/>
<path d="M149.703 2.35013C139.881 6.72513 130.297 4.17304 126.733 2.35013V21.4907C130.851 22.1157 142.178 12.1157 147.327 7.03755C137.505 20.4751 128.976 40.7615 125.94 49.2251H149.703V34.772C156.039 16.647 170.825 20.9698 177.426 25.397V2.35013C162.534 -7.64987 152.739 16.673 149.703 30.0845V2.35013Z" fill="#64C59A"/>
<path d="M84.1946 49.2188C80.6247 49.2188 77.3143 48.4291 74.2628 46.8496C71.2113 45.2137 68.7643 42.8729 66.9218 39.8268C65.0794 36.7808 64.1582 33.1143 64.1582 28.8273C64.1582 24.9916 64.7916 21.466 66.0582 18.2508C67.3824 15.0355 69.2249 12.2434 71.5854 9.87422C73.9461 7.50508 76.681 5.67182 79.7899 4.37444C82.8988 3.02065 86.2382 2.34375 89.8081 2.34375C93.6655 2.34375 96.9764 3.04885 99.74 4.45905C102.504 5.86924 104.548 8.06914 105.872 11.0588C107.254 13.992 107.743 17.7995 107.34 22.4814C107.052 27.8402 105.929 32.5502 103.972 36.6116C102.014 40.6166 99.3661 43.719 96.0267 45.9189C92.7443 48.1188 88.8006 49.2188 84.1946 49.2188ZM88.3404 38.3038C90.9883 38.3038 93.3202 37.6834 95.3352 36.4423C97.4081 35.145 99.02 33.3963 100.172 31.1964C101.381 28.9401 101.986 26.3171 101.986 23.3275C101.986 20.2251 101.036 17.7713 99.1356 15.9663C97.2932 14.1613 94.7024 13.2587 91.363 13.2587C88.7721 13.2587 86.4402 13.9073 84.3673 15.2048C82.2944 16.4457 80.654 18.1944 79.4445 20.4507C78.2931 22.6506 77.7173 25.2454 77.7173 28.235C77.7173 31.3374 78.6385 33.7912 80.4806 35.5963C82.3808 37.4013 85.001 38.3038 88.3404 38.3038ZM97.5808 48.5419L99.3946 39.4884L102.417 25.9505L104.231 12.4126L106.131 3.02064H119.604L110.363 48.5419H97.5808Z" fill="#7B3FEF"/>
</g>
<defs>
<clipPath id="clip0_2917_11408">
<rect width="240" height="50" fill="white"/>
</clipPath>
</defs>
</svg>
