<svg width="375" height="178" viewBox="0 0 375 178" fill="none" xmlns="http://www.w3.org/2000/svg">
<path opacity="0.2" d="M-42 168.29V85.5846L107 1.71047V84.4154L-42 168.29Z" fill="#FF5C00" stroke="#FF5C00" stroke-width="2"/>
<path opacity="0.2" d="M59 168.29V85.5846L208 1.71047V84.4154L59 168.29Z" fill="#7B3FEF" stroke="#7B3FEF" stroke-width="2"/>
<path opacity="0.2" d="M159 168.29V85.5846L308 1.71047V84.4154L159 168.29Z" fill="#64C59A" stroke="#64C59A" stroke-width="2"/>
<path opacity="0.2" d="M260 168.29V85.5846L409 1.71047V84.4154L260 168.29Z" fill="#5262F5" stroke="#5262F5" stroke-width="2"/>
<path opacity="0.5" d="M-34 176.29V93.5846L115 9.71047V92.4154L-34 176.29Z" stroke="#FF5C00" stroke-width="2"/>
<path opacity="0.5" d="M67 176.29V93.5846L216 9.71047V92.4154L67 176.29Z" stroke="#7B3FEF" stroke-width="2"/>
<path opacity="0.5" d="M167 176.29V93.5846L316 9.71047V92.4154L167 176.29Z" stroke="#64C59A" stroke-width="2"/>
<path opacity="0.5" d="M268 176.29V93.5846L417 9.71047V92.4154L268 176.29Z" stroke="#5262F5" stroke-width="2"/>
</svg>
