<svg width="23" height="22" viewBox="0 0 23 22" fill="none" xmlns="http://www.w3.org/2000/svg">
<path d="M21.18 11.2295C21.18 10.5145 21.1158 9.82699 20.9967 9.16699H11.5V13.0674H16.9267C16.6929 14.3278 15.9825 15.3957 14.9146 16.1107V18.6407H18.1733C20.08 16.8853 21.18 14.3003 21.18 11.2295Z" fill="#4285F4"/>
<path d="M11.5001 21.0835C14.2226 21.0835 16.5051 20.1806 18.1734 18.6406L14.9147 16.1106C14.0118 16.7156 12.8568 17.0731 11.5001 17.0731C8.87384 17.0731 6.65092 15.2993 5.85801 12.916H2.48926V15.5285C4.14842 18.8239 7.55842 21.0835 11.5001 21.0835Z" fill="#34A853"/>
<path d="M5.85824 12.9158C5.65658 12.3108 5.54199 11.6646 5.54199 11C5.54199 10.3354 5.65658 9.68918 5.85824 9.08418V6.47168H2.48949C1.78366 7.8768 1.41637 9.42757 1.41699 11C1.41699 12.6271 1.80658 14.1671 2.48949 15.5283L5.85824 12.9158Z" fill="#FBBC05"/>
<path d="M11.5001 4.92741C12.9805 4.92741 14.3097 5.43616 15.3547 6.43533L18.2468 3.54324C16.5005 1.91616 14.218 0.916992 11.5001 0.916992C7.55842 0.916992 4.14842 3.17658 2.48926 6.47199L5.85801 9.08449C6.65092 6.70116 8.87384 4.92741 11.5001 4.92741Z" fill="#EA4335"/>
</svg>
