<svg width="40" height="40" viewBox="0 0 40 40" fill="none" xmlns="http://www.w3.org/2000/svg">
<path d="M35.625 6.25V12.5C35.625 12.9973 35.4275 13.4742 35.0758 13.8258C34.7242 14.1775 34.2473 14.375 33.75 14.375C33.2527 14.375 32.7758 14.1775 32.4242 13.8258C32.0725 13.4742 31.875 12.9973 31.875 12.5V8.125H27.5C27.0027 8.125 26.5258 7.92746 26.1742 7.57583C25.8225 7.22419 25.625 6.74728 25.625 6.25C25.625 5.75272 25.8225 5.27581 26.1742 4.92417C26.5258 4.57254 27.0027 4.375 27.5 4.375H33.75C34.2473 4.375 34.7242 4.57254 35.0758 4.92417C35.4275 5.27581 35.625 5.75272 35.625 6.25ZM12.5 31.875H8.125V27.5C8.125 27.0027 7.92746 26.5258 7.57583 26.1742C7.22419 25.8225 6.74728 25.625 6.25 25.625C5.75272 25.625 5.27581 25.8225 4.92417 26.1742C4.57254 26.5258 4.375 27.0027 4.375 27.5V33.75C4.375 34.2473 4.57254 34.7242 4.92417 35.0758C5.27581 35.4275 5.75272 35.625 6.25 35.625H12.5C12.9973 35.625 13.4742 35.4275 13.8258 35.0758C14.1775 34.7242 14.375 34.2473 14.375 33.75C14.375 33.2527 14.1775 32.7758 13.8258 32.4242C13.4742 32.0725 12.9973 31.875 12.5 31.875ZM33.75 25.625C33.2527 25.625 32.7758 25.8225 32.4242 26.1742C32.0725 26.5258 31.875 27.0027 31.875 27.5V31.875H27.5C27.0027 31.875 26.5258 32.0725 26.1742 32.4242C25.8225 32.7758 25.625 33.2527 25.625 33.75C25.625 34.2473 25.8225 34.7242 26.1742 35.0758C26.5258 35.4275 27.0027 35.625 27.5 35.625H33.75C34.2473 35.625 34.7242 35.4275 35.0758 35.0758C35.4275 34.7242 35.625 34.2473 35.625 33.75V27.5C35.625 27.0027 35.4275 26.5258 35.0758 26.1742C34.7242 25.8225 34.2473 25.625 33.75 25.625ZM6.25 14.375C6.74728 14.375 7.22419 14.1775 7.57583 13.8258C7.92746 13.4742 8.125 12.9973 8.125 12.5V8.125H12.5C12.9973 8.125 13.4742 7.92746 13.8258 7.57583C14.1775 7.22419 14.375 6.74728 14.375 6.25C14.375 5.75272 14.1775 5.27581 13.8258 4.92417C13.4742 4.57254 12.9973 4.375 12.5 4.375H6.25C5.75272 4.375 5.27581 4.57254 4.92417 4.92417C4.57254 5.27581 4.375 5.75272 4.375 6.25V12.5C4.375 12.9973 4.57254 13.4742 4.92417 13.8258C5.27581 14.1775 5.75272 14.375 6.25 14.375ZM25.625 28.75H14.375C13.5462 28.75 12.7513 28.4208 12.1653 27.8347C11.5792 27.2487 11.25 26.4538 11.25 25.625V14.375C11.25 13.5462 11.5792 12.7513 12.1653 12.1653C12.7513 11.5792 13.5462 11.25 14.375 11.25H25.625C26.4538 11.25 27.2487 11.5792 27.8347 12.1653C28.4208 12.7513 28.75 13.5462 28.75 14.375V25.625C28.75 26.4538 28.4208 27.2487 27.8347 27.8347C27.2487 28.4208 26.4538 28.75 25.625 28.75ZM25 15H15V25H25V15Z" fill="white"/>
</svg>
