<svg width="128" height="33" viewBox="0 0 128 33" fill="none" xmlns="http://www.w3.org/2000/svg">
<g filter="url(#filter0_d_2917_13045)">
<g clip-path="url(#clip0_2917_13045)">
<path d="M103.01 1.5625H95.8809V23.8777H103.01V1.5625Z" fill="#5262F5"/>
<path d="M124 8.14746H116.871V18.0247H124V8.14746Z" fill="#5262F5"/>
<path d="M95.8809 1.56266V8.14746L116.871 8.14746V1.56266L95.8809 1.56266Z" fill="#5262F5"/>
<path d="M95.8809 18.0246V24.6094H116.871V18.0246H95.8809Z" fill="#5262F5"/>
<path fill-rule="evenodd" clip-rule="evenodd" d="M29.423 4.62437C37.3676 12.4604 30.8133 22.8432 24.0603 20.4923C17.3073 18.1415 14.9239 10.3055 17.9032 3.05713C15.3874 5.60387 12.62 13.5183 21.6769 24.8022H4.59585C4.72826 18.8598 7.2176 6.03484 16.1156 2.27353C13.1364 3.05713 6.5423 6.77926 4 15.3989V1.24415C9.98923 -0.238763 23.1377 -1.57502 29.423 4.62437ZM19.4914 2.27353C20.948 2.66533 24.3377 4.115 26.2444 6.77926C28.6278 10.1096 27.4361 11.8727 26.8403 12.2645C26.2444 12.6563 23.6624 12.8522 21.4776 8.93418C19.7298 5.79976 19.4253 3.18773 19.4914 2.27353Z" fill="#5262F5"/>
<path d="M78.8519 1.17506C73.941 3.36256 69.1489 2.08652 67.3667 1.17506V10.7454C69.4261 11.0579 75.0895 6.05785 77.6638 3.51877C72.7529 10.2375 68.4887 20.3807 66.9707 24.6125H78.8519V17.386C82.0202 8.32348 89.4131 10.4849 92.7133 12.6985V1.17506C85.2677 -3.82494 80.3699 8.33652 78.8519 15.0423V1.17506Z" fill="#5262F5"/>
<path d="M46.0973 24.6094C44.3124 24.6094 42.6572 24.2145 41.1314 23.4248C39.6056 22.6069 38.3821 21.4364 37.4609 19.9134C36.5397 18.3904 36.0791 16.5571 36.0791 14.4136C36.0791 12.4958 36.3958 10.733 37.0291 9.12539C37.6912 7.51777 38.6124 6.12168 39.7927 4.93711C40.973 3.75254 42.3405 2.83591 43.8949 2.18722C45.4494 1.51032 47.1191 1.17188 48.9041 1.17188C50.8328 1.17188 52.4882 1.52443 53.87 2.22952C55.2518 2.93462 56.274 4.03457 56.9361 5.52938C57.6268 6.99598 57.8716 8.89977 57.67 11.2407C57.5262 13.9201 56.9646 16.2751 55.986 18.3058C55.007 20.3083 53.6831 21.8595 52.0134 22.9595C50.3722 24.0594 48.4003 24.6094 46.0973 24.6094ZM48.1702 19.1519C49.4941 19.1519 50.6601 18.8417 51.6676 18.2212C52.7041 17.5725 53.51 16.6982 54.0858 15.5982C54.6906 14.47 54.9928 13.1586 54.9928 11.6637C54.9928 10.1125 54.5179 8.88566 53.5678 7.98313C52.6466 7.08062 51.3512 6.62934 49.6815 6.62934C48.386 6.62934 47.2201 6.95367 46.1837 7.60238C45.1472 8.22285 44.327 9.09719 43.7223 10.2254C43.1465 11.3253 42.8587 12.6227 42.8587 14.1175C42.8587 15.6687 43.3193 16.8956 44.2403 17.7981C45.1904 18.7006 46.5005 19.1519 48.1702 19.1519ZM52.7904 24.2709L53.6973 19.7442L55.2086 12.9752L56.1155 6.20629L57.0656 1.51032H63.8019L59.1813 24.2709H52.7904Z" fill="#5262F5"/>
<path d="M103.011 1.5625H95.8818V23.8777H103.011V1.5625Z" fill="#5262F5"/>
<path d="M124.001 8.14746H116.872V18.0247H124.001V8.14746Z" fill="#5262F5"/>
<path d="M95.8818 1.56265V8.14746L116.872 8.14746V1.56265L95.8818 1.56265Z" fill="#5262F5"/>
<path d="M95.8818 18.0246V24.6094H116.872V18.0246H95.8818Z" fill="#5262F5"/>
<path fill-rule="evenodd" clip-rule="evenodd" d="M29.423 4.62437C37.3676 12.4604 30.8133 22.8432 24.0603 20.4923C17.3073 18.1415 14.9239 10.3055 17.9032 3.05713C15.3874 5.60387 12.62 13.5183 21.6769 24.8022H4.59585C4.72826 18.8598 7.2176 6.03484 16.1156 2.27353C13.1364 3.05713 6.5423 6.77926 4 15.3989V1.24415C9.98923 -0.238763 23.1377 -1.57502 29.423 4.62437ZM19.4914 2.27353C20.948 2.66533 24.3377 4.115 26.2444 6.77926C28.6278 10.1096 27.4361 11.8727 26.8403 12.2645C26.2444 12.6563 23.6624 12.8522 21.4776 8.93418C19.7298 5.79977 19.4253 3.18773 19.4914 2.27353Z" fill="#FF5C00"/>
<path d="M78.8519 1.17506C73.941 3.36256 69.1489 2.08652 67.3667 1.17506V10.7454C69.4261 11.0579 75.0895 6.05785 77.6638 3.51877C72.7529 10.2375 68.4887 20.3807 66.9707 24.6125H78.8519V17.386C82.0202 8.32348 89.4131 10.4849 92.7133 12.6985V1.17506C85.2677 -3.82494 80.3699 8.33652 78.8519 15.0423V1.17506Z" fill="#64C59A"/>
<path d="M46.0973 24.6094C44.3124 24.6094 42.6572 24.2145 41.1314 23.4248C39.6056 22.6069 38.3821 21.4364 37.4609 19.9134C36.5397 18.3904 36.0791 16.5571 36.0791 14.4136C36.0791 12.4958 36.3958 10.733 37.0291 9.12539C37.6912 7.51777 38.6124 6.12168 39.7927 4.93711C40.973 3.75254 42.3405 2.83591 43.8949 2.18722C45.4494 1.51032 47.1191 1.17188 48.9041 1.17188C50.8328 1.17188 52.4882 1.52443 53.87 2.22952C55.2518 2.93462 56.274 4.03457 56.9361 5.52938C57.6268 6.99598 57.8716 8.89977 57.67 11.2407C57.5262 13.9201 56.9646 16.2751 55.986 18.3058C55.007 20.3083 53.6831 21.8595 52.0134 22.9595C50.3722 24.0594 48.4003 24.6094 46.0973 24.6094ZM48.1702 19.1519C49.4941 19.1519 50.6601 18.8417 51.6676 18.2212C52.7041 17.5725 53.51 16.6982 54.0858 15.5982C54.6906 14.47 54.9928 13.1586 54.9928 11.6637C54.9928 10.1125 54.5179 8.88566 53.5678 7.98313C52.6466 7.08062 51.3512 6.62934 49.6815 6.62934C48.386 6.62934 47.2201 6.95367 46.1837 7.60238C45.1472 8.22285 44.327 9.09719 43.7223 10.2254C43.1465 11.3253 42.8587 12.6227 42.8587 14.1175C42.8587 15.6687 43.3193 16.8956 44.2403 17.7981C45.1904 18.7006 46.5005 19.1519 48.1702 19.1519ZM52.7904 24.2709L53.6973 19.7442L55.2086 12.9752L56.1155 6.20629L57.0656 1.51032H63.8019L59.1813 24.2709H52.7904Z" fill="#7B3FEF"/>
</g>
</g>
<defs>
<filter id="filter0_d_2917_13045" x="0" y="0" width="128" height="33" filterUnits="userSpaceOnUse" color-interpolation-filters="sRGB">
<feFlood flood-opacity="0" result="BackgroundImageFix"/>
<feColorMatrix in="SourceAlpha" type="matrix" values="0 0 0 0 0 0 0 0 0 0 0 0 0 0 0 0 0 0 127 0" result="hardAlpha"/>
<feOffset dy="4"/>
<feGaussianBlur stdDeviation="2"/>
<feComposite in2="hardAlpha" operator="out"/>
<feColorMatrix type="matrix" values="0 0 0 0 0 0 0 0 0 0 0 0 0 0 0 0 0 0 0.25 0"/>
<feBlend mode="normal" in2="BackgroundImageFix" result="effect1_dropShadow_2917_13045"/>
<feBlend mode="normal" in="SourceGraphic" in2="effect1_dropShadow_2917_13045" result="shape"/>
</filter>
<clipPath id="clip0_2917_13045">
<rect width="120" height="25" fill="white" transform="translate(4)"/>
</clipPath>
</defs>
</svg>
