<svg width="28" height="30" viewBox="0 0 28 30" fill="none" xmlns="http://www.w3.org/2000/svg">
<g clip-path="url(#clip0_2917_13130)" filter="url(#filter0_d_2917_13130)">
<path d="M14 2C19.523 2 24 6.477 24 12C24 17.523 19.523 22 14 22C8.477 22 4 17.523 4 12C4 6.477 8.477 2 14 2ZM14 4C11.8783 4 9.84344 4.84285 8.34315 6.34315C6.84285 7.84344 6 9.87827 6 12C6 14.1217 6.84285 16.1566 8.34315 17.6569C9.84344 19.1571 11.8783 20 14 20C16.1217 20 18.1566 19.1571 19.6569 17.6569C21.1571 16.1566 22 14.1217 22 12C22 9.87827 21.1571 7.84344 19.6569 6.34315C18.1566 4.84285 16.1217 4 14 4ZM14 16C14.2652 16 14.5196 16.1054 14.7071 16.2929C14.8946 16.4804 15 16.7348 15 17C15 17.2652 14.8946 17.5196 14.7071 17.7071C14.5196 17.8946 14.2652 18 14 18C13.7348 18 13.4804 17.8946 13.2929 17.7071C13.1054 17.5196 13 17.2652 13 17C13 16.7348 13.1054 16.4804 13.2929 16.2929C13.4804 16.1054 13.7348 16 14 16ZM14 6.5C14.8423 6.50003 15.6583 6.79335 16.3078 7.3296C16.9573 7.86585 17.3998 8.61154 17.5593 9.43858C17.7188 10.2656 17.5853 11.1224 17.1818 11.8617C16.7783 12.601 16.1299 13.1768 15.348 13.49C15.2328 13.5337 15.1286 13.6024 15.043 13.691C14.999 13.741 14.992 13.805 14.993 13.871L15 14C14.9997 14.2549 14.9021 14.5 14.7272 14.6854C14.5522 14.8707 14.313 14.9822 14.0586 14.9972C13.8042 15.0121 13.5536 14.9293 13.3582 14.7657C13.1627 14.6021 13.0371 14.3701 13.007 14.117L13 14V13.75C13 12.597 13.93 11.905 14.604 11.634C14.8783 11.5245 15.1176 11.3423 15.2962 11.107C15.4748 10.8717 15.5859 10.5922 15.6176 10.2986C15.6493 10.0049 15.6004 9.70813 15.4762 9.44014C15.352 9.17215 15.1571 8.94307 14.9125 8.77748C14.6679 8.61189 14.3829 8.51606 14.0879 8.50027C13.793 8.48448 13.4993 8.54934 13.2384 8.68787C12.9775 8.8264 12.7593 9.03338 12.6072 9.28658C12.4551 9.53978 12.3748 9.82962 12.375 10.125C12.375 10.3902 12.2696 10.6446 12.0821 10.8321C11.8946 11.0196 11.6402 11.125 11.375 11.125C11.1098 11.125 10.8554 11.0196 10.6679 10.8321C10.4804 10.6446 10.375 10.3902 10.375 10.125C10.375 9.16359 10.7569 8.24156 11.4367 7.56174C12.1166 6.88192 13.0386 6.5 14 6.5Z" fill="url(#paint0_linear_2917_13130)"/>
</g>
<defs>
<filter id="filter0_d_2917_13130" x="-2" y="0" width="32" height="32" filterUnits="userSpaceOnUse" color-interpolation-filters="sRGB">
<feFlood flood-opacity="0" result="BackgroundImageFix"/>
<feColorMatrix in="SourceAlpha" type="matrix" values="0 0 0 0 0 0 0 0 0 0 0 0 0 0 0 0 0 0 127 0" result="hardAlpha"/>
<feOffset dy="4"/>
<feGaussianBlur stdDeviation="2"/>
<feComposite in2="hardAlpha" operator="out"/>
<feColorMatrix type="matrix" values="0 0 0 0 0 0 0 0 0 0 0 0 0 0 0 0 0 0 0.25 0"/>
<feBlend mode="normal" in2="BackgroundImageFix" result="effect1_dropShadow_2917_13130"/>
<feBlend mode="normal" in="SourceGraphic" in2="effect1_dropShadow_2917_13130" result="shape"/>
</filter>
<linearGradient id="paint0_linear_2917_13130" x1="4" y1="2" x2="24.5689" y2="2.60324" gradientUnits="userSpaceOnUse">
<stop stop-color="#5262F5"/>
<stop offset="1" stop-color="#7B3FEF"/>
</linearGradient>
<clipPath id="clip0_2917_13130">
<rect width="24" height="24" fill="white" transform="translate(2)"/>
</clipPath>
</defs>
</svg>
