<svg width="132" height="150" viewBox="0 0 132 150" fill="none" xmlns="http://www.w3.org/2000/svg">
<g filter="url(#filter0_d_3973_1081)">
<rect x="5" y="1" width="122" height="122" rx="31" stroke="#3B3B3B" stroke-width="2" stroke-dasharray="9 9"/>
<path d="M40.42 141.43C40 141.43 39.88 141.31 39.88 140.89V133.27C39.88 132.85 40 132.73 40.42 132.73H41.66C42.07 132.73 42.19 132.85 42.19 133.27V139.39H46.6C47.02 139.39 47.14 139.51 47.14 139.92V140.89C47.14 141.31 47.02 141.43 46.6 141.43H40.42ZM48.4766 141.43C48.0566 141.43 47.9366 141.31 47.9366 140.89V133.27C47.9366 132.85 48.0566 132.73 48.4766 132.73H54.6566C55.0766 132.73 55.1966 132.85 55.1966 133.27V134.24C55.1966 134.65 55.0766 134.77 54.6566 134.77H50.2466V139.39H54.6566C55.0766 139.39 55.1966 139.51 55.1966 139.92V140.89C55.1966 141.31 55.0766 141.43 54.6566 141.43H48.4766ZM51.2966 138.05C50.8766 138.05 50.7666 137.93 50.7666 137.51V136.55C50.7666 136.13 50.8766 136.01 51.2966 136.01H54.3566C54.7766 136.01 54.8966 136.13 54.8966 136.55V137.51C54.8966 137.93 54.7766 138.05 54.3566 138.05H51.2966ZM55.6377 133.37C55.5077 133.01 55.5877 132.73 55.9777 132.73H57.3477C57.9477 132.73 58.0877 132.98 58.2177 133.35L60.8177 140.79C60.9377 141.12 60.8477 141.43 60.4477 141.43H59.1377C58.5377 141.43 58.3977 141.18 58.2677 140.81L55.6377 133.37ZM61.9277 139.47C61.8177 139.79 61.6777 139.96 61.4277 139.96C61.1777 139.96 61.0477 139.8 60.9277 139.47L60.3977 137.95C60.2577 137.54 60.1777 137.15 60.3377 136.7L61.5077 133.35C61.6377 132.98 61.7777 132.73 62.3777 132.73H63.6977C64.0577 132.73 64.2277 132.98 64.0977 133.34L61.9277 139.47ZM65.2149 141.43C64.7949 141.43 64.6749 141.31 64.6749 140.89V133.27C64.6749 132.85 64.7949 132.73 65.2149 132.73H71.3949C71.8149 132.73 71.9349 132.85 71.9349 133.27V134.24C71.9349 134.65 71.8149 134.77 71.3949 134.77H66.9849V139.39H71.3949C71.8149 139.39 71.9349 139.51 71.9349 139.92V140.89C71.9349 141.31 71.8149 141.43 71.3949 141.43H65.2149ZM68.0349 138.05C67.6149 138.05 67.5049 137.93 67.5049 137.51V136.55C67.5049 136.13 67.6149 136.01 68.0349 136.01H71.0949C71.5149 136.01 71.6349 136.13 71.6349 136.55V137.51C71.6349 137.93 71.5149 138.05 71.0949 138.05H68.0349ZM73.086 141.43C72.666 141.43 72.546 141.31 72.546 140.89V133.27C72.546 132.85 72.666 132.73 73.086 132.73H74.326C74.736 132.73 74.856 132.85 74.856 133.27V139.39H79.266C79.686 139.39 79.806 139.51 79.806 139.92V140.89C79.806 141.31 79.686 141.43 79.266 141.43H73.086ZM84.3107 134.77C83.8907 134.77 83.7707 134.65 83.7707 134.24V133.27C83.7707 132.85 83.8907 132.73 84.3107 132.73H88.5407C90.7207 132.73 91.6307 133.62 91.6307 135.29V135.54C91.6307 137.21 90.7207 138.1 88.5407 138.1H86.0807V139.39H90.8007C91.2107 139.39 91.3307 139.51 91.3307 139.93V140.9C91.3307 141.31 91.2107 141.43 90.8007 141.43H84.3107C83.8907 141.43 83.7707 141.31 83.7707 140.9V136.6C83.7707 136.18 83.8907 136.06 84.3107 136.06H88.4507C89.0107 136.06 89.3207 135.84 89.3207 135.49V135.34C89.3207 134.99 89.0407 134.77 88.4507 134.77H84.3107Z" fill="#3B3B3B"/>
</g>
<g opacity="0.5">
<path d="M95.8771 50.5999C95.9765 51.028 96.0445 51.4685 96.0784 51.9188L95.7393 51.9443C95.7553 52.1562 95.7634 52.3703 95.7634 52.5865C95.7634 52.8027 95.7553 53.0168 95.7393 53.2287L96.0784 53.2543C96.0445 53.7045 95.9765 54.145 95.8771 54.5731L95.5458 54.4962C95.4481 54.9171 95.3188 55.3255 95.1606 55.7186L95.4761 55.8455C95.3087 56.2614 95.1103 56.6609 94.8838 57.041L94.5917 56.8669C94.3718 57.2358 94.1243 57.5858 93.8522 57.9137L94.1139 58.1309C93.8291 58.4742 93.5183 58.7944 93.1847 59.0883L92.9599 58.8331C92.6393 59.1155 92.2968 59.3726 91.9354 59.6013L92.1172 59.8886C91.7422 60.1259 91.3476 60.334 90.9364 60.5097L90.8028 60.197C90.413 60.3636 90.0078 60.4998 89.59 60.6028L89.6714 60.933C89.2443 61.0383 88.8044 61.1104 88.3546 61.1464L88.3275 60.8074C88.1162 60.8243 87.9026 60.833 87.687 60.833C87.4713 60.833 87.2577 60.8243 87.0465 60.8074L87.0194 61.1464C86.5696 61.1104 86.1297 61.0383 85.7026 60.933L85.784 60.6028C85.3662 60.4998 84.961 60.3636 84.5712 60.197L84.4376 60.5097C84.0264 60.334 83.6318 60.1259 83.2568 59.8886L83.4386 59.6013C83.0772 59.3726 82.7347 59.1155 82.4141 58.8331L82.1893 59.0883C81.8557 58.7944 81.5449 58.4742 81.26 58.1309L81.5217 57.9137C81.2497 57.5858 81.0022 57.2358 80.7823 56.8669L80.4902 57.041C80.2637 56.6609 80.0653 56.2614 79.8979 55.8455L80.2134 55.7186C80.0552 55.3255 79.9259 54.9171 79.8282 54.4962L79.4969 54.5731C79.3975 54.145 79.3295 53.7045 79.2956 53.2543L79.6347 53.2287C79.6187 53.0168 79.6106 52.8027 79.6106 52.5865C79.6106 52.3703 79.6187 52.1562 79.6347 51.9443L79.2956 51.9188C79.3295 51.4685 79.3975 51.028 79.4969 50.5999L79.8282 50.6768C79.9259 50.2559 80.0552 49.8475 80.2134 49.4544L79.8979 49.3275C80.0653 48.9116 80.2637 48.5122 80.4902 48.132L80.7823 48.3061C81.0022 47.9372 81.2497 47.5872 81.5217 47.2593L81.26 47.0422C81.5449 46.6989 81.8557 46.3787 82.1893 46.0848L82.4141 46.3399C82.7347 46.0575 83.0772 45.8005 83.4386 45.5718L83.2568 45.2844C83.6318 45.0471 84.0264 44.839 84.4376 44.6633L84.5712 44.976C84.961 44.8095 85.3662 44.6732 85.784 44.5702L85.7026 44.24C86.1297 44.1347 86.5696 44.0626 87.0194 44.0266L87.0465 44.3656C87.2577 44.3487 87.4713 44.3401 87.687 44.3401C87.9026 44.3401 88.1162 44.3487 88.3275 44.3656L88.3546 44.0266C88.8044 44.0626 89.2443 44.1347 89.6714 44.24L89.59 44.5702C90.0078 44.6732 90.413 44.8095 90.8028 44.976L90.9364 44.6633C91.3476 44.839 91.7422 45.0471 92.1172 45.2844L91.9354 45.5718C92.2968 45.8005 92.6393 46.0575 92.9599 46.3399L93.1847 46.0848C93.5183 46.3787 93.8291 46.6989 94.1139 47.0422L93.8522 47.2593C94.1243 47.5872 94.3718 47.9372 94.5917 48.3061L94.8838 48.132C95.1103 48.5122 95.3087 48.9116 95.4761 49.3275L95.1606 49.4544C95.3188 49.8475 95.4481 50.2559 95.5458 50.6768L95.8771 50.5999Z" fill="#2C2839" stroke="url(#paint0_linear_3973_1081)" stroke-width="0.68012" stroke-dasharray="1.36 1.36"/>
<path d="M89.2723 80.7775C89.323 81.2406 89.3572 81.7035 89.3744 82.1654L89.0346 82.1781C89.0431 82.4058 89.0474 82.6333 89.0474 82.8603C89.0474 83.0812 89.0458 83.3009 89.0425 83.5193L89.3826 83.5243C89.3759 83.9699 89.3625 84.4106 89.3415 84.846L89.0019 84.8296C88.9806 85.271 88.9517 85.7065 88.9144 86.136L89.2531 86.1654C89.2145 86.6106 89.1668 87.0497 89.1096 87.4823L88.7725 87.4377C88.7146 87.8747 88.6469 88.3046 88.5685 88.7271L88.9029 88.7891C88.8216 89.2271 88.7291 89.6577 88.6243 90.0806L88.2943 89.9988C88.1887 90.4249 88.0708 90.8424 87.9396 91.251L88.2634 91.355C88.1275 91.7784 87.9774 92.1929 87.8124 92.5982L87.4975 92.4699C87.3336 92.8722 87.1549 93.2646 86.9603 93.647L87.2633 93.8012C87.0629 94.1951 86.8458 94.5788 86.6112 94.9519L86.3233 94.7709C86.0947 95.1345 85.849 95.4876 85.5853 95.8299L85.8548 96.0374C85.5879 96.3838 85.303 96.7196 84.9992 97.0442L84.7509 96.8117C84.4605 97.122 84.1521 97.422 83.8249 97.7112L84.0501 97.966C83.725 98.2534 83.3819 98.5304 83.02 98.7965L82.8185 98.5226C82.4787 98.7725 82.1215 99.0129 81.7463 99.2434L81.9244 99.5332C81.557 99.7589 81.173 99.9751 80.7717 100.182L80.6161 99.8792C80.2399 100.073 79.8478 100.258 79.4393 100.434L79.5739 100.746C79.1781 100.917 78.7675 101.079 78.3416 101.233L78.2261 100.913C77.8268 101.057 77.4135 101.194 76.9857 101.323L77.0839 101.649C76.6716 101.773 76.2464 101.89 75.8079 102L75.7253 101.67C75.3125 101.774 74.8876 101.87 74.4502 101.961L74.5189 102.294C74.0974 102.38 73.6646 102.461 73.2205 102.536L73.1643 102.2C72.7435 102.271 72.3121 102.335 71.8699 102.394L71.9149 102.732C71.4875 102.789 71.0504 102.84 70.6031 102.886L70.5683 102.548C70.1415 102.592 69.7053 102.631 69.2596 102.665L69.2854 103.004C68.8528 103.037 68.4114 103.065 67.9611 103.088L67.9436 102.749C67.5127 102.771 67.0735 102.788 66.6257 102.802L66.6358 103.142C66.205 103.154 65.7665 103.163 65.3201 103.167L65.3169 102.827C65.0959 102.829 64.873 102.83 64.6481 102.83C64.411 102.83 64.1763 102.829 63.9437 102.826L63.9399 103.166C63.4668 103.161 63.0028 103.15 62.5475 103.135L62.5593 102.795C62.0895 102.778 61.6293 102.757 61.1786 102.729L61.1579 103.069C60.6829 103.04 60.2182 103.005 59.7636 102.964L59.794 102.625C59.3231 102.583 58.8632 102.534 58.4143 102.479L58.3728 102.817C57.9001 102.758 57.439 102.693 56.9895 102.622L57.0431 102.286C56.5771 102.211 56.1237 102.13 55.6829 102.041L55.6156 102.374C55.1485 102.28 54.695 102.177 54.2546 102.067L54.3371 101.737C53.8805 101.623 53.4385 101.5 53.0109 101.369L52.9113 101.694C52.4553 101.555 52.0149 101.406 51.5897 101.248L51.7082 100.929C51.2667 100.765 50.8423 100.591 50.4343 100.407L50.2948 100.718C49.8597 100.522 49.4426 100.315 49.0429 100.098L49.2051 99.7996C48.7956 99.5773 48.405 99.3441 48.0327 99.1002L47.8464 99.3847C47.4491 99.1245 47.0717 98.8522 46.7134 98.5683L46.9246 98.3018C46.5625 98.0148 46.2205 97.7159 45.8978 97.4054L45.662 97.6504C45.3231 97.3244 45.0048 96.9857 44.706 96.6349L44.9649 96.4144C44.6687 96.0666 44.3922 95.7066 44.1344 95.3348L43.8549 95.5286C43.5896 95.1459 43.3437 94.7512 43.1161 94.3449L43.4128 94.1787C43.1914 93.7834 42.9877 93.3766 42.8007 92.9587L42.4903 93.0976C42.3015 92.6758 42.1295 92.2433 41.9735 91.8006L42.2942 91.6875C42.1439 91.2613 42.0085 90.8251 41.8871 90.3791L41.559 90.4685C41.438 90.0239 41.3308 89.5704 41.2366 89.1083L41.5698 89.0404C41.4794 88.5971 41.4011 88.1454 41.3341 87.6858L40.9976 87.7348C40.9312 87.2798 40.8759 86.8174 40.8308 86.3482L41.1693 86.3156C41.1258 85.8627 41.092 85.4029 41.0671 84.9365L40.7275 84.9546C40.7031 84.4958 40.6873 84.0311 40.6795 83.5608L41.0196 83.5551C41.0158 83.3249 41.0139 83.0933 41.0139 82.8603C41.0139 82.641 41.0171 82.4213 41.0234 82.2014L40.6835 82.1916C40.6963 81.7466 40.7218 81.3007 40.7598 80.8546L41.0987 80.8835C41.136 80.4461 41.1854 80.0084 41.2469 79.5711L40.9102 79.5238C40.9721 79.083 41.0461 78.6428 41.1318 78.2037L41.4656 78.2689C41.5498 77.8377 41.6455 77.4077 41.7526 76.9794L41.4227 76.8969C41.5308 76.4648 41.6502 76.0345 41.7808 75.6067L42.1061 75.706C42.2345 75.2854 42.3739 74.8672 42.5241 74.4521L42.2043 74.3364C42.3559 73.9172 42.5184 73.5012 42.6915 73.0891L43.005 73.2207C43.1754 72.8149 43.3563 72.4129 43.5474 72.0153L43.2409 71.868C43.434 71.4661 43.6375 71.0686 43.8511 70.6763L44.1497 70.8389C44.3603 70.4522 44.5807 70.0706 44.811 69.6946L44.521 69.517C44.754 69.1366 44.9968 68.7619 45.2494 68.3935L45.5298 68.5859C45.7788 68.2227 46.0373 67.8659 46.3051 67.5161L46.0351 67.3094C46.3063 66.9551 46.587 66.6078 46.877 66.2682L47.1356 66.489C47.4213 66.1543 47.7162 65.8272 48.0199 65.5083L47.7736 65.2738C48.0812 64.9508 48.3979 64.6361 48.7234 64.3303L48.9562 64.5781C49.2766 64.2771 49.6056 63.9849 49.943 63.7022L49.7246 63.4415C50.0663 63.1552 50.4165 62.8784 50.7752 62.6117L50.9781 62.8846C51.3303 62.6227 51.6907 62.3707 52.059 62.1293L51.8726 61.8449C52.2451 61.6008 52.6256 61.3673 53.014 61.145L53.1829 61.4402C53.5632 61.2226 53.9511 61.0159 54.3466 60.8208L54.1961 60.5158C54.5948 60.319 55.0011 60.1338 55.4147 59.9606L55.546 60.2743C55.9491 60.1056 56.3592 59.9487 56.7762 59.804L56.6647 59.4827C57.0837 59.3373 57.5095 59.2041 57.9421 59.0837L58.0333 59.4113C58.4533 59.2943 58.8798 59.1896 59.3126 59.0976L59.2419 58.7649C59.6748 58.6729 60.1139 58.5935 60.559 58.5271L60.6091 58.8634C61.0397 58.7992 61.476 58.7474 61.918 58.7085L61.8882 58.3698C62.3282 58.3311 62.7736 58.305 63.2244 58.2919L63.2342 58.6319C63.454 58.6255 63.675 58.6223 63.8973 58.6223C64.1272 58.6223 64.3564 58.6257 64.5848 58.6325L64.5949 58.2926C65.0611 58.3065 65.5241 58.3342 65.9835 58.3752L65.9533 58.7139C66.4107 58.7548 66.8646 58.809 67.3146 58.8762L67.3648 58.5399C67.8253 58.6086 68.2819 58.6906 68.7341 58.7854L68.6643 59.1182C69.1132 59.2124 69.5578 59.3192 69.9979 59.4384L70.0867 59.1102C70.5356 59.2317 70.9796 59.3658 71.4186 59.5119L71.3112 59.8345C71.7462 59.9793 72.1761 60.1361 72.6007 60.3042L72.7259 59.9881C73.158 60.1592 73.5845 60.342 74.0051 60.5359L73.8627 60.8448C74.279 61.0367 74.6895 61.2397 75.0938 61.4531L75.2526 61.1524C75.6634 61.3692 76.0678 61.5967 76.4655 61.8343L76.2911 62.1262C76.6848 62.3614 77.0718 62.6065 77.4519 62.8611L77.6412 62.5786C78.027 62.8371 78.4058 63.1052 78.777 63.3823L78.5736 63.6549C78.9412 63.9293 79.3014 64.2127 79.6538 64.5045L79.8706 64.2425C80.2285 64.5388 80.5783 64.8436 80.9198 65.1563L80.6902 65.4071C81.0287 65.7171 81.3589 66.035 81.6804 66.3602L81.9222 66.1211C82.2491 66.4516 82.5672 66.7897 82.8759 67.1345L82.6226 67.3614C82.9291 67.7037 83.2264 68.0528 83.514 68.408L83.7783 68.1941C84.0711 68.5557 84.354 68.9236 84.6267 69.2972L84.352 69.4977C84.623 69.869 84.8837 70.2459 85.1337 70.6279L85.4183 70.4417C85.6732 70.8311 85.9173 71.2258 86.15 71.625L85.8562 71.7963C86.0877 72.1934 86.3078 72.5949 86.5162 73.0003L86.8186 72.8449C87.0315 73.2591 87.2323 73.6775 87.4206 74.0991L87.1101 74.2378C87.2976 74.6577 87.4724 75.0808 87.6341 75.5065L87.952 75.3857C88.1176 75.8215 88.2697 76.26 88.4079 76.7006L88.0835 76.8024C88.2209 77.2405 88.3444 77.6806 88.4533 78.1217L88.7835 78.0402C88.8952 78.4925 88.992 78.9462 89.0734 79.4004L88.7387 79.4604C88.8195 79.9116 88.8849 80.3633 88.9343 80.8145L89.2723 80.7775Z" fill="#2C2839" stroke="url(#paint1_linear_3973_1081)" stroke-width="0.68012" stroke-dasharray="1.36 1.36"/>
<mask id="path-5-inside-1_3973_1081" fill="white">
<path fill-rule="evenodd" clip-rule="evenodd" d="M52.5377 68.1597C55.5069 65.942 57.7966 64.2318 55.9214 62.0882C53.6024 59.4375 48.8631 59.7273 44.9607 62.6173C44.2734 61.8751 42.9867 61.9214 42.0624 62.73C41.1246 63.5504 40.915 64.8451 41.5944 65.6216C41.668 65.7057 41.7491 65.7804 41.8362 65.8455C39.6702 69.0206 39.3331 72.6673 41.2823 74.8953C43.1307 77.0081 44.5263 75.556 46.7675 73.2241C47.553 72.4068 48.4423 71.4814 49.4914 70.5636C50.497 69.6839 51.5546 68.894 52.5377 68.1597Z"/>
</mask>
<path fill-rule="evenodd" clip-rule="evenodd" d="M52.5377 68.1597C55.5069 65.942 57.7966 64.2318 55.9214 62.0882C53.6024 59.4375 48.8631 59.7273 44.9607 62.6173C44.2734 61.8751 42.9867 61.9214 42.0624 62.73C41.1246 63.5504 40.915 64.8451 41.5944 65.6216C41.668 65.7057 41.7491 65.7804 41.8362 65.8455C39.6702 69.0206 39.3331 72.6673 41.2823 74.8953C43.1307 77.0081 44.5263 75.556 46.7675 73.2241C47.553 72.4068 48.4423 71.4814 49.4914 70.5636C50.497 69.6839 51.5546 68.894 52.5377 68.1597Z" fill="#2C2839"/>
<path d="M55.9214 62.0882L56.1773 61.8643V61.8643L55.9214 62.0882ZM52.5377 68.1597L52.7412 68.4321L52.5377 68.1597ZM44.9607 62.6173L44.7112 62.8483L44.9183 63.0719L45.1631 62.8905L44.9607 62.6173ZM42.0624 62.73L42.2863 62.9859L42.0624 62.73ZM41.5944 65.6216L41.8503 65.3977L41.8503 65.3977L41.5944 65.6216ZM41.8362 65.8455L42.1172 66.0371L42.3008 65.768L42.0397 65.573L41.8362 65.8455ZM41.2823 74.8953L41.0263 75.1192L41.2823 74.8953ZM46.7675 73.2241L47.0127 73.4597L46.7675 73.2241ZM49.4914 70.5636L49.2675 70.3077L49.4914 70.5636ZM56.1773 61.8643C55.9996 61.6612 55.8085 61.4741 55.6055 61.3032L55.1674 61.8234C55.3443 61.9723 55.5106 62.1352 55.6654 62.3121L56.1773 61.8643ZM54.2497 60.4674C53.774 60.2605 53.2653 60.114 52.7337 60.0255L52.6221 60.6964C53.103 60.7764 53.5576 60.9081 53.9784 61.0911L54.2497 60.4674ZM51.1717 59.9287C50.6669 59.9461 50.1504 60.008 49.6286 60.1132L49.763 60.7799C50.2504 60.6816 50.7297 60.6245 51.1951 60.6084L51.1717 59.9287ZM48.1384 60.5272C47.6641 60.695 47.1899 60.8972 46.7204 61.1332L47.0259 61.7409C47.4705 61.5173 47.9185 61.3264 48.3652 61.1684L48.1384 60.5272ZM45.389 61.9034C45.1767 62.0431 44.9664 62.1899 44.7584 62.344L45.1631 62.8905C45.361 62.744 45.5611 62.6043 45.7628 62.4716L45.389 61.9034ZM45.2103 62.3862C44.9844 62.1424 44.7068 61.9699 44.4037 61.8669L44.1848 62.5108C44.3879 62.5798 44.5671 62.6926 44.7112 62.8483L45.2103 62.3862ZM42.5952 61.9882C42.3291 62.1067 42.0729 62.269 41.8385 62.474L42.2863 62.9859C42.4697 62.8255 42.6683 62.7001 42.8719 62.6095L42.5952 61.9882ZM41.8385 62.474C41.6007 62.6821 41.4036 62.9182 41.2498 63.1702L41.8304 63.5245C41.948 63.3317 42.1003 63.1487 42.2863 62.9859L41.8385 62.474ZM40.9039 64.975C40.9727 65.2919 41.1158 65.591 41.3384 65.8455L41.8503 65.3977C41.708 65.235 41.6144 65.0421 41.5685 64.8307L40.9039 64.975ZM41.3384 65.8455C41.3606 65.8708 41.3832 65.8954 41.4065 65.9193L41.8942 65.4452C41.8792 65.4299 41.8646 65.414 41.8503 65.3977L41.3384 65.8455ZM41.5539 66.0558C41.5797 66.0772 41.606 66.098 41.6328 66.1179L42.0397 65.573C42.0225 65.5601 42.0056 65.5468 41.989 65.533L41.5539 66.0558ZM41.5553 65.6538C41.4367 65.8278 41.3233 66.0031 41.2153 66.1797L41.7955 66.5346C41.8976 66.3677 42.0048 66.2018 42.1172 66.0371L41.5553 65.6538ZM40.6178 67.2812C40.4344 67.6673 40.2762 68.0563 40.1442 68.4453L40.7883 68.6638C40.9115 68.3007 41.0596 67.9362 41.2321 67.5731L40.6178 67.2812ZM39.8166 69.6642C39.7328 70.0886 39.6816 70.5098 39.6644 70.9239L40.344 70.9521C40.3596 70.5747 40.4063 70.1882 40.4838 69.796L39.8166 69.6642ZM39.7247 72.2004C39.7858 72.6321 39.8895 73.0506 40.0376 73.4502L40.6753 73.2139C40.5451 72.8625 40.4528 72.4915 40.3981 72.105L39.7247 72.2004ZM40.6289 74.6039C40.7498 74.7825 40.8823 74.9545 41.0263 75.1192L41.5382 74.6714C41.4127 74.5279 41.2974 74.3781 41.1921 74.2226L40.6289 74.6039ZM41.0263 75.1192C41.1688 75.282 41.3106 75.427 41.4526 75.5545L41.9071 75.0486C41.7881 74.9417 41.6653 74.8166 41.5382 74.6714L41.0263 75.1192ZM42.5638 76.1951C43.0169 76.314 43.457 76.2622 43.8854 76.0926L43.6349 75.4602C43.3164 75.5864 43.0255 75.6131 42.7364 75.5373L42.5638 76.1951ZM44.9364 75.4573C45.2213 75.2338 45.5119 74.9713 45.8112 74.6819L45.3385 74.1929C45.0483 74.4735 44.7762 74.7186 44.5166 74.9222L44.9364 75.4573ZM46.6183 73.8691C46.7471 73.736 46.8786 73.5992 47.0127 73.4597L46.5223 72.9884C46.3881 73.1281 46.2574 73.2641 46.1295 73.3963L46.6183 73.8691ZM47.0127 73.4597C47.2253 73.2385 47.4446 73.0103 47.6725 72.7767L47.1855 72.3018C46.9557 72.5375 46.7347 72.7674 46.5223 72.9884L47.0127 73.4597ZM49.018 71.4512C49.2426 71.241 49.4748 71.03 49.7154 70.8196L49.2675 70.3077C49.0207 70.5236 48.7829 70.7397 48.5533 70.9546L49.018 71.4512ZM49.7154 70.8196C49.9568 70.6084 50.2015 70.4021 50.448 70.2003L50.0171 69.6741C49.7657 69.8799 49.5152 70.091 49.2675 70.3077L49.7154 70.8196ZM51.9663 69.0131C52.2278 68.8156 52.4866 68.6223 52.7412 68.4321L52.3342 67.8872C52.0798 68.0772 51.8196 68.2716 51.5564 68.4704L51.9663 69.0131ZM52.7412 68.4321C52.9216 68.2974 53.1 68.1641 53.2752 68.0325L52.8666 67.4888C52.6924 67.6197 52.5148 67.7524 52.3342 67.8872L52.7412 68.4321ZM54.3383 67.2151C54.711 66.9184 55.0598 66.6257 55.3726 66.3349L54.9095 65.8368C54.6138 66.1117 54.2795 66.3926 53.9147 66.6829L54.3383 67.2151ZM56.3132 65.3072C56.6265 64.8798 56.8488 64.4304 56.9184 63.9535L56.2454 63.8553C56.197 64.1871 56.0371 64.5335 55.7647 64.905L56.3132 65.3072ZM56.6073 62.4584C56.4931 62.2592 56.3498 62.0615 56.1773 61.8643L55.6654 62.3121C55.8127 62.4804 55.9285 62.6419 56.0173 62.7967L56.6073 62.4584ZM55.9214 62.0882L56.4332 61.6404V61.6404L55.9214 62.0882ZM52.5377 68.1597L52.9447 68.7046L52.5377 68.1597ZM44.9607 62.6173L44.4617 63.0794L44.8758 63.5265L45.3655 63.1638L44.9607 62.6173ZM42.0624 62.73L42.5102 63.2419H42.5102L42.0624 62.73ZM41.5944 65.6216L42.1063 65.1738H42.1063L41.5944 65.6216ZM41.8362 65.8455L42.3981 66.2288L42.7653 65.6905L42.2432 65.3006L41.8362 65.8455ZM41.2823 74.8953L40.7704 75.3431H40.7704L41.2823 74.8953ZM46.7675 73.2241L47.2579 73.6954L46.7675 73.2241ZM49.4914 70.5636L49.0436 70.0517H49.0436L49.4914 70.5636ZM56.4332 61.6404C56.2441 61.4242 56.0407 61.2251 55.8245 61.0431L54.9484 62.0836C55.1121 62.2214 55.2661 62.3722 55.4095 62.536L56.4332 61.6404ZM54.3853 60.1556C53.8821 59.9367 53.3464 59.7827 52.7895 59.6901L52.5663 61.0319C53.0219 61.1077 53.4495 61.2319 53.8428 61.403L54.3853 60.1556ZM51.16 59.5888C50.6355 59.6069 50.1004 59.6712 49.5614 59.7798L49.8302 61.1133C50.3004 61.0185 50.7612 60.9636 51.2068 60.9483L51.16 59.5888ZM48.025 60.2066C47.5369 60.3792 47.0496 60.5871 46.5677 60.8294L47.1786 62.0447C47.6109 61.8274 48.0457 61.6421 48.4786 61.489L48.025 60.2066ZM45.2021 61.6193C44.9846 61.7624 44.769 61.9129 44.556 62.0707L45.3655 63.1638C45.5584 63.021 45.7532 62.885 45.9497 62.7557L45.2021 61.6193ZM45.4598 62.1552C45.1931 61.8672 44.8663 61.665 44.5132 61.5449L44.0754 62.8328C44.2284 62.8848 44.3584 62.9678 44.4617 63.0794L45.4598 62.1552ZM42.4568 61.6775C42.1595 61.81 41.8745 61.9907 41.6146 62.2181L42.5102 63.2419C42.6681 63.1037 42.8379 62.9969 43.0102 62.9201L42.4568 61.6775ZM41.6146 62.2181C41.351 62.4487 41.1314 62.7114 40.9595 62.9931L42.1206 63.7016C42.2202 63.5385 42.35 63.382 42.5102 63.2419L41.6146 62.2181ZM40.5716 65.0471C40.6518 65.4168 40.8197 65.769 41.0825 66.0694L42.1063 65.1738C42.0041 65.057 41.9353 64.9172 41.9009 64.7586L40.5716 65.0471ZM41.0825 66.0694C41.1085 66.0992 41.1353 66.1281 41.1626 66.1563L42.138 65.2082C42.1272 65.1971 42.1166 65.1856 42.1063 65.1738L41.0825 66.0694ZM41.3364 66.3171C41.3668 66.3424 41.3978 66.3669 41.4293 66.3904L42.2432 65.3006C42.2307 65.2912 42.2185 65.2816 42.2065 65.2716L41.3364 66.3171ZM41.2744 65.4622C41.1526 65.6407 41.0362 65.8209 40.9252 66.0022L42.0856 66.712C42.1847 66.55 42.2889 66.3888 42.3981 66.2288L41.2744 65.4622ZM40.3107 67.1353C40.1218 67.5329 39.9586 67.9341 39.8222 68.336L41.1103 68.7731C41.2291 68.4229 41.3722 68.0706 41.5393 67.719L40.3107 67.1353ZM39.483 69.5982C39.396 70.0388 39.3426 70.4773 39.3247 70.9099L40.6837 70.9661C40.6986 70.6072 40.7431 70.238 40.8174 69.8619L39.483 69.5982ZM39.388 72.2481C39.4523 72.7025 39.5617 73.1447 39.7187 73.5684L40.9942 73.0957C40.8729 72.7684 40.7863 72.4212 40.7348 72.0573L39.388 72.2481ZM40.3473 74.7946C40.476 74.9847 40.617 75.1678 40.7704 75.3431L41.7942 74.4475C41.6779 74.3146 41.5712 74.1759 41.4737 74.032L40.3473 74.7946ZM40.7704 75.3431C40.9205 75.5147 41.0719 75.6697 41.2253 75.8075L42.1343 74.7956C42.0269 74.6991 41.9135 74.5839 41.7942 74.4475L40.7704 75.3431ZM42.4775 76.5241C43.0126 76.6644 43.5273 76.6001 44.0106 76.4087L43.5097 75.1441C43.246 75.2485 43.0297 75.2627 42.8226 75.2083L42.4775 76.5241ZM45.1463 75.7249C45.4438 75.4915 45.7437 75.2202 46.0476 74.9264L45.1022 73.9485C44.8165 74.2247 44.5537 74.4609 44.3067 74.6546L45.1463 75.7249ZM46.8628 74.1056C46.992 73.972 47.1239 73.8348 47.2579 73.6954L46.2771 72.7528C46.1429 72.8925 46.0125 73.0281 45.8851 73.1598L46.8628 74.1056ZM47.2579 73.6954C47.4706 73.474 47.6891 73.2467 47.9159 73.0141L46.9421 72.0644C46.7112 72.3011 46.4894 72.5319 46.2771 72.7528L47.2579 73.6954ZM49.2503 71.6995C49.4725 71.4916 49.7019 71.2832 49.9393 71.0755L49.0436 70.0517C48.7937 70.2704 48.553 70.4891 48.3209 70.7063L49.2503 71.6995ZM49.9393 71.0755C50.1775 70.8671 50.4195 70.6632 50.6634 70.4634L49.8016 69.411C49.5478 69.6188 49.2945 69.8323 49.0436 70.0517L49.9393 71.0755ZM52.1713 69.2845C52.4319 69.0876 52.69 68.8949 52.9447 68.7046L52.1307 67.6148C51.8764 67.8047 51.6154 67.9996 51.3514 68.1991L52.1713 69.2845ZM52.9447 68.7046C53.1251 68.5699 53.3039 68.4363 53.4795 68.3044L52.6623 67.2169C52.4885 67.3475 52.3114 67.4799 52.1307 67.6148L52.9447 68.7046ZM54.55 67.4811C54.9268 67.1813 55.2828 66.8827 55.6041 66.584L54.678 65.5877C54.3909 65.8546 54.0638 66.1297 53.7029 66.4169L54.55 67.4811ZM56.5874 65.5083C56.9212 65.053 57.1747 64.5521 57.2549 64.0026L55.9089 63.8062C55.8711 64.0655 55.7424 64.3603 55.4904 64.7039L56.5874 65.5083ZM56.9024 62.2893C56.7754 62.0679 56.6183 61.852 56.4332 61.6404L55.4095 62.536C55.5441 62.6899 55.6462 62.8332 55.7223 62.9658L56.9024 62.2893Z" fill="url(#paint2_linear_3973_1081)" mask="url(#path-5-inside-1_3973_1081)"/>
<path d="M63.3658 82.9222C63.3658 80.9213 63.8805 80.2987 64.827 79.7009C65.5576 79.2277 66.1138 78.7627 66.1221 78.0404C66.1138 77.3181 65.541 76.8366 64.827 76.8449C64.1213 76.8366 63.482 77.3348 63.4654 78.1733H60.8253C60.8585 75.7407 62.6601 74.6365 64.8436 74.6365C67.2512 74.6365 68.9864 75.7988 68.9947 77.9076C68.9864 79.3107 68.2475 80.1658 67.135 80.83C66.2384 81.353 65.8149 81.8678 65.8066 82.9222V83.1546H63.3658V82.9222ZM63.1333 85.4793C63.1167 84.6656 63.8058 84.0015 64.6277 84.0015C65.4247 84.0015 66.1304 84.6656 66.1387 85.4793C66.1304 86.3178 65.4247 86.9903 64.6277 86.9903C63.8058 86.9903 63.1167 86.3178 63.1333 85.4793Z" fill="white" fill-opacity="0.1"/>
</g>
<defs>
<filter id="filter0_d_3973_1081" x="0" y="0" width="132" height="152" filterUnits="userSpaceOnUse" color-interpolation-filters="sRGB">
<feFlood flood-opacity="0" result="BackgroundImageFix"/>
<feColorMatrix in="SourceAlpha" type="matrix" values="0 0 0 0 0 0 0 0 0 0 0 0 0 0 0 0 0 0 127 0" result="hardAlpha"/>
<feOffset dy="4"/>
<feGaussianBlur stdDeviation="2"/>
<feComposite in2="hardAlpha" operator="out"/>
<feColorMatrix type="matrix" values="0 0 0 0 0 0 0 0 0 0 0 0 0 0 0 0 0 0 0.25 0"/>
<feBlend mode="normal" in2="BackgroundImageFix" result="effect1_dropShadow_3973_1081"/>
<feBlend mode="normal" in="SourceGraphic" in2="effect1_dropShadow_3973_1081" result="shape"/>
</filter>
<linearGradient id="paint0_linear_3973_1081" x1="79.2705" y1="44" x2="96.5828" y2="44.4977" gradientUnits="userSpaceOnUse">
<stop stop-color="#5262F5"/>
<stop offset="1" stop-color="#7B3FEF"/>
</linearGradient>
<linearGradient id="paint1_linear_3973_1081" x1="40.6738" y1="58.2822" x2="90.7653" y2="59.8765" gradientUnits="userSpaceOnUse">
<stop stop-color="#5262F5"/>
<stop offset="1" stop-color="#7B3FEF"/>
</linearGradient>
<linearGradient id="paint2_linear_3973_1081" x1="39.998" y1="60.2637" x2="57.0718" y2="60.7947" gradientUnits="userSpaceOnUse">
<stop stop-color="#5262F5"/>
<stop offset="1" stop-color="#7B3FEF"/>
</linearGradient>
</defs>
</svg>
