<svg width="40" height="40" viewBox="0 0 40 40" fill="none" xmlns="http://www.w3.org/2000/svg">
<circle cx="20" cy="20" r="20" fill="url(#paint0_linear_3942_1079)"/>
<path fill-rule="evenodd" clip-rule="evenodd" d="M27.3845 13.846C27.7244 13.5062 27.7244 12.9551 27.3845 12.6153C27.0446 12.2754 26.4936 12.2754 26.1537 12.6153L19.9997 18.7693L13.8461 12.6157C13.5062 12.2758 12.9552 12.2758 12.6153 12.6157C12.2754 12.9556 12.2754 13.5066 12.6153 13.8465L18.7689 20.0001L12.6153 26.1537C12.2754 26.4936 12.2754 27.0446 12.6153 27.3845C12.9551 27.7244 13.5062 27.7244 13.846 27.3845L19.9997 21.2308L26.1538 27.3849C26.4936 27.7248 27.0447 27.7248 27.3845 27.3849C27.7244 27.0451 27.7244 26.494 27.3845 26.1542L21.2304 20.0001L27.3845 13.846Z" fill="white"/>
<defs>
<linearGradient id="paint0_linear_3942_1079" x1="0" y1="0" x2="41.1377" y2="1.20648" gradientUnits="userSpaceOnUse">
<stop stop-color="#5262F5"/>
<stop offset="1" stop-color="#7B3FEF"/>
</linearGradient>
</defs>
</svg>
